<svg xmlns="http://www.w3.org/2000/svg" viewBox="0 0 512 512">
  <defs>
    <radialGradient id="bg" cx="36%" cy="26%" r="76%">
      <stop offset="0" stop-color="#9da1a4"/>
      <stop offset="1" stop-color="#777b7e"/>
    </radialGradient>
    <radialGradient id="blue" cx="38%" cy="30%" r="65%">
      <stop offset="0" stop-color="#1f6fa8"/>
      <stop offset="1" stop-color="#075085"/>
    </radialGradient>
    <radialGradient id="red" cx="38%" cy="30%" r="65%">
      <stop offset="0" stop-color="#e13d44"/>
      <stop offset="1" stop-color="#b91d2a"/>
    </radialGradient>
    <radialGradient id="green" cx="38%" cy="30%" r="65%">
      <stop offset="0" stop-color="#25ad58"/>
      <stop offset="1" stop-color="#0b853d"/>
    </radialGradient>
  </defs>
  <circle cx="256" cy="256" r="230" fill="url(#bg)" stroke="#74787b" stroke-width="12"/>
  <circle cx="256" cy="256" r="214" fill="none" stroke="#fff" stroke-width="9"/>

  <g stroke="#fff" stroke-width="8" stroke-linejoin="round">
    <circle cx="138" cy="150" r="47" fill="none"/>
    <path d="M138 105c-24 43-34 62-34 82a34 34 0 0 0 68 0c0-20-10-39-34-82z" fill="url(#blue)"/>
    <circle cx="256" cy="150" r="47" fill="none"/>
    <path d="M256 105c-24 43-34 62-34 82a34 34 0 0 0 68 0c0-20-10-39-34-82z" fill="url(#red)"/>
    <circle cx="374" cy="150" r="47" fill="none"/>
    <path d="M374 105c-24 43-34 62-34 82a34 34 0 0 0 68 0c0-20-10-39-34-82z" fill="url(#green)"/>
  </g>

  <text x="256" y="326" text-anchor="middle"
        font-family="Arial Black, Arial, sans-serif"
        font-size="96" font-weight="900" fill="#fff">UEL</text>
</svg>
